<?xml version="1.0" encoding="utf-8"?>
<!-- Svg Vector Icons : http://www.onlinewebfonts.com/icon -->
<!DOCTYPE svg PUBLIC "-//W3C//DTD SVG 1.1//EN" "http://www.w3.org/Graphics/SVG/1.1/DTD/svg11.dtd">
<svg version="1.1" xmlns="http://www.w3.org/2000/svg" xmlns:xlink="http://www.w3.org/1999/xlink" x="0px" y="0px" viewBox="0 0 1000 1000" enable-background="new 0 0 1000 1000" xml:space="preserve">
<metadata> Svg Vector Icons : http://www.onlinewebfonts.com/icon </metadata>
<g><path d="M500,10C229.4,10,10,229.4,10,500c0,270.6,219.4,490,490,490c270.6,0,490-219.4,490-490C990,229.4,770.6,10,500,10z M500,924.7C265.4,924.7,75.3,734.6,75.3,500C75.3,265.4,265.4,75.3,500,75.3S924.7,265.4,924.7,500C924.7,734.6,734.6,924.7,500,924.7z"/><path d="M537.4,472.2l18,16.9l30.7-31.4l-26.4-25.4l16.6-16.6l26.2,25.2L621,422c11-11,10-29.9-1-40.9l-4-4c-11-11-29.9-12.1-41-1L395.6,559.5c-30.8-9.8-65.8-2.8-90.2,21.6c-34.9,34.9-34.9,91.5,0,126.4c34.9,34.9,91.5,34.9,126.4,0c29-29,33.5-72.7,14.4-106.7l92.5-94.6l-17.9-17.4L537.4,472.2z M315.9,677.3c0,10-24-45.5,14.5-78.9c38.5-33.5,67.5-2.8,67.5-2.8S324.2,596.9,315.9,677.3z"/><path d="M760.1,356.1c29.5-29.5,26.7-80-2.8-109.4L746.7,236c-29.5-29.4-80-32.2-109.4-2.8L383.8,495.7c-43.2-4.4-87.9,9.5-121.1,42.7c-58.5,58.5-58.5,153.3,0,211.8c58.5,58.5,153.3,58.5,211.8,0c37.8-37.8,50.7-90.8,39.6-139.3L760.1,356.1z M476.4,612.7c11.1,38.1,1.7,80.9-28.4,110.9c-43.9,43.8-114.9,43.8-158.8,0c-43.8-43.8-43.8-114.9,0-158.8c24.9-24.9,58.6-35.6,91-32.2c0,0,22.1-1.5,26.8-16.1l248.3-253.9c18.6-18.6,50.5-16.9,69.1,1.7l6.7,6.7c18.6,18.6,20.3,50.5,1.7,69.1l-4.8,4.9l-46.5-46.5l-16.6,16.6l46.6,46.7l-30.2,30.9l-30-28.8L635,380.4l30.2,29L619,456.8l1.9,1.9l-16.6,16.6l-1.7-1.7l-30,30.7l1.5,1.3l-16.6,18.2l-2.1-2l-68.9,70.5C474,599.9,476.4,612.7,476.4,612.7z"/><path d="M735.9,588.8c-5.3,8.8-5.8,18.1-1,20.7c4.8,2.6,13-2.4,18.4-11.2c5.3-8.8,5.8-18.1,1-20.7C749.4,575,741.2,580,735.9,588.8z"/><path d="M767.8,640.9c2.8,4.6,12.5,4.2,21.7-0.9c9.3-5.1,14.5-12.9,11.7-17.5c-2.8-4.6-12.5-4.2-21.8,0.9C770.3,628.5,765,636.4,767.8,640.9z"/><path d="M679.8,579.6c0,10.2,4.5,18.4,10,18.4s10-8.2,10-18.4c0-10.2-4.5-18.4-10-18.4S679.8,569.4,679.8,579.6z"/><path d="M625.6,577.6c-4.8,2.6-4.4,11.9,1,20.7c5.3,8.8,13.6,13.8,18.4,11.2c4.8-2.7,4.4-11.9-1-20.7C638.6,580,630.4,575,625.6,577.6z"/><path d="M799.2,674.2c-10.7,0-19.3,4.3-19.3,9.6c0,5.3,8.6,9.6,19.3,9.6c10.7,0,19.3-4.3,19.3-9.6C818.5,678.5,809.8,674.2,799.2,674.2z"/><path d="M689.9,769.5c-5.5,0-10,8.3-10,18.4c0,10.2,4.5,18.4,10,18.4s10-8.3,10-18.4C699.9,777.7,695.4,769.5,689.9,769.5z"/><path d="M578.5,622.5c-2.8,4.6,2.5,12.4,11.7,17.5c9.3,5.1,19,5.5,21.8,0.9c2.8-4.6-2.5-12.4-11.7-17.5C591,618.3,581.3,617.9,578.5,622.5z"/><path d="M734.8,758c-4.8,2.7-4.4,11.9,1,20.7c5.3,8.8,13.6,13.8,18.4,11.2c4.8-2.6,4.4-11.9-1-20.7C747.9,760.4,739.6,755.4,734.8,758z"/><path d="M789.5,727.6c-9.2-5.1-19-5.5-21.8-0.9c-2.8,4.6,2.5,12.4,11.7,17.5c9.3,5.1,19,5.5,21.8,0.9C804,740.5,798.8,732.7,789.5,727.6z"/><path d="M644.9,758c-4.8-2.6-13,2.4-18.4,11.2c-5.3,8.8-5.8,18.1-1,20.7c4.8,2.6,13-2.4,18.4-11.2C649.3,770,649.7,760.7,644.9,758z"/><path d="M692.5,759.6c43.5,0,78.8-33.6,78.8-75.1c0-41.5-35.3-75.1-78.8-75.1c-43.5,0-78.8,33.6-78.8,75.1C613.7,725.9,649,759.6,692.5,759.6z"/><path d="M599.9,683.8c0-5.3-8.6-9.6-19.3-9.6c-10.7,0-19.3,4.3-19.3,9.6c0,5.3,8.7,9.6,19.3,9.6C591.3,693.4,599.9,689.1,599.9,683.8z"/><path d="M590.2,727.6c-9.2,5.1-14.5,12.9-11.7,17.5c2.8,4.6,12.5,4.2,21.8-0.9c9.2-5.1,14.5-12.9,11.7-17.5C609.2,722.1,599.5,722.5,590.2,727.6z"/></g>
</svg>