<?xml version="1.0" encoding="utf-8"?>
<!-- Generator: Adobe Illustrator 24.1.1, SVG Export Plug-In . SVG Version: 6.00 Build 0)  -->
<svg version="1.1" id="Layer_1" xmlns="http://www.w3.org/2000/svg" xmlns:xlink="http://www.w3.org/1999/xlink" x="0px" y="0px"
	 viewBox="0 0 512 512" style="enable-background:new 0 0 512 512;" xml:space="preserve">
<g>
	<path d="M216.5,99.9c4.6-4.6,10.5-6.8,16.5-6.9c6,0,11.8,2.2,16.4,6.8l0,0c4.6,4.6,6.8,10.4,6.9,16.5c0,6-2.2,11.8-6.8,16.4l0,0
		c-4.4,4.4-10.3,6.9-16.5,6.9l-0.4,0l0.2,23.3v-23.3H23.3C10.4,139.6,0,150,0,162.9c0,12.9,10.4,23.3,23.3,23.3l209.5,0l0.2,0l0-2.2
		v2.2l0,0l0-2.2v2.2c18.6,0,36.4-7.4,49.5-20.6l0,0c13.5-13.6,20.3-31.5,20.3-49.2c0-17.9-6.9-35.9-20.6-49.5l0,0
		c-13.6-13.5-31.5-20.3-49.2-20.3c-17.9,0-35.9,6.9-49.5,20.6c-9.1,9.1-9,23.9,0.1,32.9C192.7,109.1,207.4,109,216.5,99.9
		L216.5,99.9z M253.3,444.9c13.6,13.7,31.7,20.6,49.5,20.6c17.7,0,35.7-6.8,49.2-20.3l0,0c13.7-13.6,20.6-31.7,20.6-49.5
		c0-17.7-6.8-35.7-20.3-49.2l0,0c-13.1-13.2-30.9-20.6-49.5-20.6l-1.1,0l0.9,23.3v-23.3H23.3C10.4,325.8,0,336.3,0,349.1
		c0,12.9,10.4,23.3,23.3,23.3l279.3,0l0.9,0l-0.8-20.2l0.1,20.3l0.7,0l-0.8-20.2l0.1,20.3l0-2.2v2.2h0l0-2.2v2.2
		c6.2,0,12.1,2.5,16.5,6.9l0,0c4.6,4.6,6.7,10.4,6.8,16.4c0,6.1-2.2,11.9-6.9,16.5l0,0c-4.6,4.6-10.4,6.7-16.4,6.8
		c-6.1,0-11.9-2.2-16.5-6.9c-9.1-9.1-23.8-9.2-32.9-0.1C244.3,421.1,244.2,435.8,253.3,444.9L253.3,444.9z M405.9,173.1
		c6.9-6.8,15.7-10.2,24.7-10.2c9,0,17.8,3.4,24.7,10.3l0,0c6.8,6.9,10.2,15.7,10.2,24.7c0,9-3.4,17.8-10.3,24.7l0,0
		c-6.5,6.5-15.4,10.2-24.6,10.2h0H23.3C10.4,232.7,0,243.1,0,256c0,12.9,10.4,23.3,23.3,23.3l407.4,0h0c21.5,0,42.2-8.6,57.4-23.8
		l0,0c15.9-15.9,24-36.9,23.9-57.7c0-20.7-8-41.7-23.8-57.5l0,0c-15.9-15.9-36.9-24-57.7-23.9c-20.7,0-41.7,8-57.5,23.8
		c-9.1,9.1-9.1,23.8,0,32.9C382,182.1,396.8,182.2,405.9,173.1L405.9,173.1z"/>
</g>
</svg>
