<?xml version="1.0" standalone="no"?>
<!DOCTYPE svg PUBLIC "-//W3C//DTD SVG 20010904//EN"
 "http://www.w3.org/TR/2001/REC-SVG-20010904/DTD/svg10.dtd">
<svg version="1.0" xmlns="http://www.w3.org/2000/svg"
 width="1577.000000pt" height="1335.000000pt" viewBox="0 0 1577.000000 1335.000000"
 preserveAspectRatio="xMidYMid meet">

<g transform="translate(0.000000,1335.000000) scale(0.100000,-0.100000)"
fill="#000000" stroke="none">
<path d="M5340 13324 c-85 -18 -212 -82 -276 -138 -68 -60 -138 -165 -172
-256 l-27 -75 -6 -2885 c-5 -2637 -6 -2892 -22 -2965 -52 -254 -148 -436 -309
-591 -165 -158 -342 -249 -617 -317 -85 -21 -98 -21 -1736 -27 -1538 -5 -1654
-7 -1710 -23 -113 -34 -185 -77 -270 -162 -92 -91 -136 -165 -165 -281 -20
-76 -20 -120 -20 -2569 0 -2449 0 -2493 20 -2569 51 -202 204 -365 405 -434
l80 -27 7365 0 c7002 0 7368 1 7429 18 201 55 362 206 429 402 l27 80 3 6130
c2 6783 8 6213 -63 6361 -43 89 -145 202 -228 252 -31 18 -88 45 -129 60 l-73
27 -4935 2 c-4196 1 -4945 -1 -5000 -13z m7568 -5467 c183 -53 335 -196 404
-380 l23 -62 3 -735 c2 -633 1 -750 -13 -845 -53 -360 -198 -735 -412 -1065
-194 -298 -474 -584 -748 -763 -198 -129 -488 -253 -715 -306 -245 -57 -196
-55 -1499 -58 l-1205 -4 581 -582 c563 -564 582 -584 617 -659 80 -167 86
-335 20 -499 -134 -329 -510 -470 -834 -313 -73 35 -108 69 -1201 1161 -776
775 -1136 1141 -1159 1179 -57 94 -82 178 -87 289 -8 158 33 288 127 410 22
28 526 537 1122 1132 739 738 1101 1093 1141 1118 102 64 178 87 302 92 126 6
197 -8 304 -60 96 -46 216 -168 265 -267 88 -181 86 -363 -5 -550 -41 -84 -46
-90 -617 -662 l-576 -578 1097 0 c713 0 1131 4 1194 11 257 28 471 135 668
333 177 178 311 405 392 664 l27 87 6 725 c6 724 6 725 29 790 35 101 78 169
155 246 77 77 180 136 278 160 89 21 224 17 316 -9z"/>
</g>
</svg>
